<svg width="15" height="16" viewBox="0 0 15 16" fill="none" xmlns="http://www.w3.org/2000/svg">
<path d="M13.4375 1.375H11.6562V0.78125C11.6562 0.623778 11.5937 0.472755 11.4823 0.361405C11.371 0.250056 11.22 0.1875 11.0625 0.1875C10.905 0.1875 10.754 0.250056 10.6427 0.361405C10.5313 0.472755 10.4688 0.623778 10.4688 0.78125V1.375H4.53125V0.78125C4.53125 0.623778 4.46869 0.472755 4.35734 0.361405C4.24599 0.250056 4.09497 0.1875 3.9375 0.1875C3.78003 0.1875 3.62901 0.250056 3.51766 0.361405C3.40631 0.472755 3.34375 0.623778 3.34375 0.78125V1.375H1.5625C1.24756 1.375 0.94551 1.50011 0.722811 1.72281C0.500111 1.94551 0.375 2.24756 0.375 2.5625V14.4375C0.375 14.7524 0.500111 15.0545 0.722811 15.2772C0.94551 15.4999 1.24756 15.625 1.5625 15.625H13.4375C13.7524 15.625 14.0545 15.4999 14.2772 15.2772C14.4999 15.0545 14.625 14.7524 14.625 14.4375V2.5625C14.625 2.24756 14.4999 1.94551 14.2772 1.72281C14.0545 1.50011 13.7524 1.375 13.4375 1.375ZM3.34375 2.5625V3.15625C3.34375 3.31372 3.40631 3.46474 3.51766 3.57609C3.62901 3.68744 3.78003 3.75 3.9375 3.75C4.09497 3.75 4.24599 3.68744 4.35734 3.57609C4.46869 3.46474 4.53125 3.31372 4.53125 3.15625V2.5625H10.4688V3.15625C10.4688 3.31372 10.5313 3.46474 10.6427 3.57609C10.754 3.68744 10.905 3.75 11.0625 3.75C11.22 3.75 11.371 3.68744 11.4823 3.57609C11.5937 3.46474 11.6562 3.31372 11.6562 3.15625V2.5625H13.4375V4.9375H1.5625V2.5625H3.34375ZM13.4375 14.4375H1.5625V6.125H13.4375V14.4375Z" fill="black"/>
</svg>
