<svg width="60" height="53" viewBox="0 0 60 53" fill="none" xmlns="http://www.w3.org/2000/svg">
<path fill-rule="evenodd" clip-rule="evenodd" d="M17.5 22.3636C17.5 16.0877 22.5877 11 28.8636 11C35.1396 11 40.2273 16.0877 40.2273 22.3636C40.2273 25.0924 39.2655 27.5964 37.6624 29.5554L42.5 34.3929L40.8929 36L36.0554 31.1624C34.0964 32.7655 31.5924 33.7273 28.8636 33.7273C22.5877 33.7273 17.5 28.6396 17.5 22.3636ZM28.8636 13.2727C23.8429 13.2727 19.7727 17.3429 19.7727 22.3636C19.7727 27.3844 23.8429 31.4545 28.8636 31.4545C33.8844 31.4545 37.9545 27.3844 37.9545 22.3636C37.9545 17.3429 33.8844 13.2727 28.8636 13.2727Z" fill="#393939"/>
<path d="M21.098 43.0801V49.623H20.2191V43.0801H21.098ZM19.3891 43.2363V49.3594H18.5102V46.2637H17.4262V47.9629H14.0082V43.9199H17.4262V45.502H18.5102V43.2363H19.3891ZM21.352 50.8926V51.6445H15.2973V48.8125H16.2152V50.8926H21.352ZM14.8773 44.6523V47.2402H16.5668V44.6523H14.8773ZM26.743 43.8516V44.6133H23.3348V46.3027H26.4109V47.0449H23.3348V49.0078C24.868 49.0029 25.9715 48.9395 27.2703 48.7344L27.368 49.4863C25.9813 49.7109 24.7801 49.7598 23.1297 49.7598H22.4168V43.8516H26.743ZM29.1551 43.0801V51.8301H28.2176V43.0801H29.1551ZM33.1887 44.8867C33.1887 45.8828 33.9797 46.8203 35.3176 47.1914L34.8977 47.9043C33.8771 47.6211 33.1301 47.0059 32.7395 46.2148C32.3537 47.0791 31.5871 47.7529 30.552 48.0703L30.1027 47.3379C31.4406 46.957 32.2707 45.9805 32.2707 44.8867V44.7891H30.3664V44.0469H32.2707V43.041H33.1984V44.0469H35.093V44.7891H33.1887V44.8867ZM36.9973 43.0801V45.1797H38.2668V45.9512H36.9973V48.1289H36.0695V43.0801H36.9973ZM37.134 48.5684V49.3105H34.7414C34.9074 50.126 36.0305 50.873 37.4953 51.0879L37.1535 51.8008C35.8254 51.5957 34.7316 50.9854 34.2238 50.1504C33.7209 50.9805 32.6369 51.5811 31.3137 51.791L30.9719 51.0781C32.4416 50.873 33.55 50.1504 33.7258 49.3105H31.3234V48.5684H37.134ZM45.6402 43.0801V51.8301H44.7027V43.0801H45.6402ZM43.0328 44.0176C43.0328 46.5762 41.9391 48.8027 38.941 50.2383L38.4527 49.4863C40.7818 48.3779 41.9146 46.8008 42.0953 44.7598H38.8727V44.0176H43.0328Z" fill="#393939"/>
</svg>
