<svg width="60" height="53" viewBox="0 0 60 53" fill="none" xmlns="http://www.w3.org/2000/svg">
<path fill-rule="evenodd" clip-rule="evenodd" d="M17.5 22.3636C17.5 16.0877 22.5877 11 28.8636 11C35.1396 11 40.2273 16.0877 40.2273 22.3636C40.2273 25.0924 39.2655 27.5964 37.6624 29.5554L42.5 34.3929L40.8929 36L36.0554 31.1624C34.0964 32.7655 31.5924 33.7273 28.8636 33.7273C22.5877 33.7273 17.5 28.6396 17.5 22.3636ZM28.8636 13.2727C23.8429 13.2727 19.7727 17.3429 19.7727 22.3636C19.7727 27.3844 23.8429 31.4545 28.8636 31.4545C33.8844 31.4545 37.9545 27.3844 37.9545 22.3636C37.9545 17.3429 33.8844 13.2727 28.8636 13.2727Z" fill="#B2BAC2"/>
<path d="M21.0395 49.6133H20.307V43.1094H21.0395V49.6133ZM19.3793 49.3594H18.6469V46.2051H17.4262V47.9141H14.0668V43.9492H17.4262V45.5605H18.6469V43.2852H19.3793V49.3594ZM21.3031 51.6055H15.3461V48.8027H16.1078V50.9609H21.3031V51.6055ZM14.7895 47.3086H16.7133V44.5645H14.7895V47.3086ZM28.9402 48.2559H26.2449V50.0723H29.8582V50.707H21.909V50.0723H25.4832V48.2559H22.9344V43.8223H28.8426V44.457H23.7156V45.6973H28.657V46.3223H23.7156V47.6309H28.9402V48.2559ZM33.1105 44.9258C33.1105 45.2676 33.2001 45.5964 33.3791 45.9121C33.5614 46.2279 33.8153 46.5062 34.1408 46.7471C34.4696 46.988 34.8456 47.1719 35.2688 47.2988L34.9074 47.8848C34.4094 47.735 33.9716 47.5072 33.5939 47.2012C33.2196 46.8919 32.9364 46.529 32.7443 46.1123C32.5588 46.568 32.2723 46.9652 31.885 47.3037C31.5008 47.639 31.05 47.8913 30.5324 48.0605L30.1516 47.4551C30.5813 47.3249 30.9621 47.1344 31.2941 46.8838C31.6294 46.6299 31.8898 46.3337 32.0754 45.9951C32.2642 45.6566 32.3586 45.3001 32.3586 44.9258V44.7598H30.3957V44.125H32.3586V43.0703H33.1301V44.125H35.0734V44.7598H33.1105V44.9258ZM36.9387 45.2578H38.2473V45.9023H36.9387V48.1582H36.177V43.1094H36.9387V45.2578ZM37.0949 49.252H34.634C34.6763 49.5449 34.8293 49.8249 35.093 50.0918C35.3599 50.3555 35.6984 50.5817 36.1086 50.7705C36.522 50.9593 36.9615 51.0911 37.427 51.166L37.1438 51.7617C36.4927 51.6543 35.9035 51.4492 35.3762 51.1465C34.8488 50.8438 34.4631 50.4792 34.2189 50.0527C33.9781 50.4759 33.5972 50.8356 33.0764 51.1318C32.5555 51.4313 31.9712 51.638 31.3234 51.752L31.0305 51.166C31.4992 51.0911 31.9387 50.9609 32.3488 50.7754C32.7622 50.5866 33.1008 50.3604 33.3645 50.0967C33.6281 49.833 33.7811 49.5514 33.8234 49.252H31.3723V48.627H37.0949V49.252ZM45.5719 51.791H44.8004V43.1094H45.5719V51.791ZM43.0035 44.0566C42.997 45.3685 42.665 46.5469 42.0074 47.5918C41.3499 48.6335 40.3212 49.4896 38.9215 50.1602L38.5016 49.5352C39.6604 48.985 40.5475 48.3014 41.1627 47.4844C41.7812 46.6673 42.1344 45.7331 42.2223 44.6816H38.902V44.0566H43.0035Z" fill="#B2BAC2"/>
</svg>
