<svg width="15" height="15" viewBox="0 0 15 15" fill="none" xmlns="http://www.w3.org/2000/svg">
<path d="M1.875 6.09375H4.6875V12.1875H1.875C1.75068 12.1875 1.63145 12.1381 1.54354 12.0502C1.45564 11.9623 1.40625 11.8431 1.40625 11.7188V6.5625C1.40625 6.43818 1.45564 6.31895 1.54354 6.23104C1.63145 6.14314 1.75068 6.09375 1.875 6.09375Z" stroke="#6F6E6E" stroke-linecap="round" stroke-linejoin="round"/>
<path d="M4.6875 6.09375L7.03125 1.40625C7.52853 1.40625 8.00544 1.60379 8.35707 1.95542C8.70871 2.30706 8.90625 2.78397 8.90625 3.28125V4.6875H12.6562C12.7892 4.68754 12.9207 4.71587 13.0419 4.77061C13.1631 4.82535 13.2712 4.90525 13.3592 5.005C13.4471 5.10475 13.5129 5.22207 13.552 5.34917C13.5911 5.47627 13.6028 5.61024 13.5861 5.74219L12.883 11.3672C12.8545 11.5937 12.7443 11.802 12.5731 11.953C12.4019 12.1041 12.1814 12.1874 11.9531 12.1875H4.6875" stroke="#6F6E6E" stroke-linecap="round" stroke-linejoin="round"/>
</svg>
