<svg width="60" height="52" viewBox="0 0 60 52" fill="none" xmlns="http://www.w3.org/2000/svg">
<path d="M36.3556 34H23.6445C20.8364 34 18.5601 31.7255 18.5601 28.92V20.9286C18.5601 19.1522 19.4887 17.5048 21.0092 16.5841L27.3648 12.7356C28.9846 11.7548 31.0155 11.7548 32.6353 12.7356L38.9909 16.5841C40.5114 17.5048 41.4401 19.1522 41.4401 20.9286V28.92C41.4401 31.7255 39.1636 34 36.3556 34Z" stroke="#B2BAC2" stroke-width="2.5" stroke-linecap="round" stroke-linejoin="round"/>
<path d="M26.48 29.6001H33.52" stroke="#B2BAC2" stroke-width="2.5" stroke-linecap="round" stroke-linejoin="round"/>
<path d="M32.9736 50.6738H26.9971V48.1934H32.9736V50.6738ZM27.7588 50.0781H32.2217V48.7891H27.7588V50.0781ZM33.4814 43.4375H26.4404V42.8418H29.6045V41.9824H30.3662V42.8418H33.4814V43.4375ZM29.9854 43.7891C30.8936 43.7956 31.5885 43.903 32.0703 44.1113C32.5553 44.3164 32.7979 44.6191 32.7979 45.0195C32.7979 45.3971 32.5895 45.6885 32.1729 45.8936C31.7562 46.0986 31.154 46.2158 30.3662 46.2451V46.9141H33.9404V47.5293H26.0303V46.9141H29.6045V46.2451C28.8135 46.2158 28.208 46.0986 27.7881 45.8936C27.3714 45.6885 27.1631 45.3971 27.1631 45.0195C27.1631 44.6191 27.4056 44.3164 27.8906 44.1113C28.3789 43.903 29.0771 43.7956 29.9854 43.7891ZM29.9854 44.3262C29.3376 44.3327 28.8411 44.3945 28.4961 44.5117C28.151 44.6289 27.9801 44.7982 27.9834 45.0195C27.9769 45.2409 28.1494 45.4118 28.501 45.5322C28.8525 45.6527 29.3473 45.7129 29.9854 45.7129C30.6201 45.7129 31.1117 45.6527 31.46 45.5322C31.8115 45.4118 31.9873 45.2409 31.9873 45.0195C31.9873 44.7982 31.8132 44.6289 31.4648 44.5117C31.1198 44.3945 30.6266 44.3327 29.9854 44.3262Z" fill="#B2BAC2"/>
</svg>
