<svg width="184" height="45" viewBox="0 0 184 45" fill="none" xmlns="http://www.w3.org/2000/svg">
<rect width="184" height="45" rx="6" fill="#FEE500"/>
<g clip-path="url(#clip0_2246_605)">
<path fill-rule="evenodd" clip-rule="evenodd" d="M23 14.1C18.0292 14.1 14 17.2129 14 21.0523C14 23.44 15.5584 25.5449 17.9315 26.7969L16.933 30.4445C16.8448 30.7668 17.2134 31.0237 17.4965 30.8369L21.8733 27.9482C22.2427 27.9838 22.6181 28.0046 23 28.0046C27.9705 28.0046 31.9999 24.8918 31.9999 21.0523C31.9999 17.2129 27.9705 14.1 23 14.1" fill="black"/>
</g>
<path d="M67.215 16.215C67.2 20.79 65.115 23.85 61.29 25.86L60.3 24.75C62.235 23.865 63.855 22.44 64.77 20.595L60.855 21.015L60.615 19.68L65.28 19.335C65.445 18.735 65.565 18.12 65.61 17.46H61.29V16.215H67.215ZM70.83 14.82V20.04H72.9V21.315H70.83V28.185H69.285V14.82H70.83ZM80.1935 16.215C80.1785 20.79 78.0935 23.85 74.2685 25.86L73.2785 24.75C75.2135 23.865 76.8335 22.44 77.7485 20.595L73.8335 21.015L73.5935 19.68L78.2585 19.335C78.4235 18.735 78.5435 18.12 78.5885 17.46H74.2685V16.215H80.1935ZM83.8085 14.82V20.04H85.8785V21.315H83.8085V28.185H82.2635V14.82H83.8085ZM98.482 26.475H86.407V25.245H91.657V22.965C89.182 22.725 87.607 21.315 87.607 19.32C87.607 17.115 89.542 15.645 92.437 15.645C95.377 15.645 97.297 17.115 97.297 19.32C97.297 21.33 95.692 22.74 93.187 22.98V25.245H98.482V26.475ZM95.752 19.335C95.752 17.91 94.447 16.905 92.437 16.905C90.472 16.905 89.152 17.91 89.152 19.335C89.152 20.745 90.472 21.705 92.437 21.705C94.432 21.705 95.752 20.745 95.752 19.335ZM114.231 23.025H110.106V25.26H115.401V26.49H103.326V25.26H108.576V23.025H104.871V18.705H112.311V16.98H104.826V15.75H113.841V19.95H106.416V21.78H114.231V23.025ZM128.379 26.235H116.304V24.99H128.379V26.235ZM126.804 16.26C126.804 19.8 126.579 22.305 126.219 24.06L124.704 23.865C125.034 22.53 125.259 19.635 125.259 17.475H117.699V16.26H126.804ZM140.278 24.51H138.748V14.82H140.278V24.51ZM140.593 27.795H131.443V23.595H132.973V26.565H140.593V27.795ZM136.528 19.08C136.528 20.985 135.148 22.35 133.108 22.35C131.068 22.35 129.658 20.985 129.658 19.095C129.658 17.19 131.053 15.81 133.108 15.81C135.148 15.81 136.528 17.175 136.528 19.08ZM134.998 19.08C134.998 17.91 134.278 17.085 133.108 17.085C131.968 17.085 131.203 17.94 131.203 19.08C131.203 20.175 131.968 21.045 133.108 21.045C134.278 21.045 134.998 20.175 134.998 19.08Z" fill="black" fill-opacity="0.85"/>
<defs>
<clipPath id="clip0_2246_605">
<rect width="17.9999" height="18" fill="white" transform="translate(14 13.5)"/>
</clipPath>
</defs>
</svg>
