<svg width="264" height="68" viewBox="0 0 264 68" fill="none" xmlns="http://www.w3.org/2000/svg">
<path d="M3.088 19.967C3.088 16.755 3.79367 13.981 5.205 11.645C6.665 9.26033 8.709 7.31367 11.337 5.805C14.0137 4.24766 17.2257 3.104 20.973 2.374C24.7203 1.644 28.93 1.279 33.602 1.279C38.2253 1.279 42.4107 1.644 46.158 2.374C49.9053 3.05533 53.093 4.15033 55.721 5.659C58.3977 7.16766 60.4417 9.11433 61.853 11.499C63.313 13.835 64.043 16.6577 64.043 19.967C64.043 23.2763 63.313 26.1233 61.853 28.508C60.4417 30.844 58.3977 32.7663 55.721 34.275C53.093 35.7837 49.9053 36.903 46.158 37.633C42.4107 38.3143 38.2253 38.655 33.602 38.655C28.93 38.655 24.7203 38.29 20.973 37.56C17.2257 36.83 14.0137 35.7107 11.337 34.202C8.709 32.6447 6.665 30.698 5.205 28.362C3.79367 25.9773 3.088 23.179 3.088 19.967ZM29.806 22.449C29.5627 22.595 29.441 22.8383 29.441 23.179C29.441 23.471 29.5383 23.763 29.733 24.055C29.9277 24.2983 30.1953 24.4687 30.536 24.566C30.8767 24.6633 31.2417 24.5903 31.631 24.347C33.2857 23.4223 34.77 22.2543 36.084 20.843C37.4467 19.383 38.4443 17.8257 39.077 16.171C39.223 15.7817 39.223 15.4167 39.077 15.076C38.931 14.7353 38.7363 14.492 38.493 14.346C38.2497 14.1513 37.982 14.054 37.69 14.054C37.398 14.054 37.179 14.1757 37.033 14.419C36.0597 16.1223 34.989 17.6553 33.821 19.018C32.653 20.332 31.3147 21.4757 29.806 22.449ZM7.614 54.131C5.52133 53.9363 3.86667 53.1577 2.65 51.795C1.482 50.4323 0.898 48.656 0.898 46.466C0.898 45.5413 1.044 44.641 1.336 43.765C1.67667 42.889 2.139 42.1103 2.723 41.429C3.307 40.7477 4.01267 40.2367 4.84 39.896C5.66733 39.5067 6.592 39.3607 7.614 39.458C11.5073 39.8473 15.644 40.115 20.024 40.261C24.404 40.407 28.8327 40.48 33.31 40.48C37.836 40.48 42.3133 40.407 46.742 40.261C51.2193 40.0663 55.4777 39.7987 59.517 39.458C60.5877 39.3607 61.5367 39.5067 62.364 39.896C63.1913 40.2853 63.897 40.8207 64.481 41.502C65.065 42.1347 65.503 42.889 65.795 43.765C66.1357 44.641 66.306 45.5413 66.306 46.466C66.306 48.656 65.6977 50.4323 64.481 51.795C63.313 53.1577 61.634 53.9363 59.444 54.131C59.3467 54.131 59.2493 54.1553 59.152 54.204C59.0547 54.204 58.9573 54.204 58.86 54.204C58.9573 54.6907 59.006 55.2017 59.006 55.737C59.006 56.2237 59.006 56.759 59.006 57.343C59.006 59.387 58.8113 61.0417 58.422 62.307C58.0813 63.5723 57.473 64.57 56.597 65.3C55.721 66.03 54.553 66.5167 53.093 66.76C51.633 67.0033 49.7837 67.125 47.545 67.125C45.355 67.125 43.5057 67.0033 41.997 66.76C40.537 66.5167 39.369 66.03 38.493 65.3C37.617 64.57 36.9843 63.5723 36.595 62.307C36.2543 61.0417 36.084 59.387 36.084 57.343C36.084 56.9537 36.084 56.5887 36.084 56.248C36.084 55.8587 36.1083 55.4693 36.157 55.08H31.047C31.0957 55.4207 31.12 55.7857 31.12 56.175C31.12 56.5643 31.12 56.9537 31.12 57.343C31.12 59.387 30.9253 61.0417 30.536 62.307C30.1953 63.5723 29.587 64.57 28.711 65.3C27.835 66.03 26.667 66.5167 25.207 66.76C23.747 67.0033 21.922 67.125 19.732 67.125C17.4447 67.125 15.5467 67.0033 14.038 66.76C12.578 66.5167 11.3857 66.03 10.461 65.3C9.585 64.57 8.95233 63.5723 8.563 62.307C8.22233 61.0417 8.052 59.387 8.052 57.343C8.052 56.759 8.052 56.2237 8.052 55.737C8.052 55.2017 8.10067 54.6907 8.198 54.204C8.10067 54.204 8.00333 54.204 7.906 54.204C7.80867 54.1553 7.71133 54.131 7.614 54.131ZM119.902 67.125C118.442 67.125 117.104 66.906 115.887 66.468C114.671 66.0787 113.649 65.4703 112.821 64.643C111.994 63.8157 111.386 62.7693 110.996 61.504C110.607 60.2873 110.51 58.8517 110.704 57.197C111.629 49.313 112.091 41.4777 112.091 33.691C112.091 25.9043 111.653 18.2393 110.777 10.696C110.388 7.046 111.069 4.36933 112.821 2.666C114.573 0.913998 116.934 0.0379978 119.902 0.0379978C122.482 0.0379978 124.599 0.767997 126.253 2.228C127.957 3.688 128.954 5.92666 129.246 8.944C130.074 16.8767 130.487 25.1013 130.487 33.618C130.487 42.1347 130.074 50.3837 129.246 58.365C128.954 61.285 127.957 63.475 126.253 64.935C124.599 66.395 122.482 67.125 119.902 67.125ZM87.7093 35.808C86.1519 36.392 84.8379 37.0977 83.7673 37.925C83.3779 38.217 83.2806 38.582 83.4753 39.02C83.6699 39.458 84.0106 39.5067 84.4973 39.166C85.0813 38.728 85.8843 38.3143 86.9063 37.925C87.9283 37.5357 89.0233 37.195 90.1913 36.903C91.3593 36.611 92.5516 36.392 93.7683 36.246C94.9849 36.0513 96.0799 35.954 97.0533 35.954C98.3673 35.954 99.6569 36.173 100.922 36.611C102.236 37.0003 103.429 37.633 104.499 38.509C105.57 39.385 106.47 40.5287 107.2 41.94C107.93 43.3513 108.393 45.0547 108.587 47.05C108.879 50.3593 108.612 53.0847 107.784 55.226C106.957 57.3673 105.667 59.0707 103.915 60.336C102.163 61.65 100.022 62.5503 97.4913 63.037C94.9606 63.5723 92.1623 63.84 89.0963 63.84C86.3709 63.84 83.8889 63.5967 81.6503 63.11C79.4116 62.672 77.4406 61.8933 75.7373 60.774C74.0339 59.6547 72.5983 58.1947 71.4303 56.394C70.3109 54.5447 69.5079 52.233 69.0213 49.459C68.5833 47.0257 68.3156 44.0813 68.2183 40.626C68.1209 37.1707 68.0966 33.618 68.1453 29.968C68.2426 26.2693 68.3886 22.6923 68.5833 19.237C68.7779 15.7817 68.9969 12.8373 69.2403 10.404C69.5323 7.338 70.4813 5.221 72.0873 4.053C73.6933 2.83633 75.8833 2.228 78.6573 2.228C81.4313 2.228 83.6456 2.83633 85.3003 4.053C86.9549 5.221 87.9039 7.36233 88.1473 10.477C88.2446 11.499 88.3176 12.7643 88.3663 14.273C88.4149 15.7817 88.4393 17.3877 88.4393 19.091C88.4879 20.7943 88.5123 22.522 88.5123 24.274C88.5123 26.026 88.4636 27.6807 88.3663 29.238C88.3176 30.7467 88.2203 32.085 88.0743 33.253C87.9769 34.421 87.8553 35.2727 87.7093 35.808ZM174.302 41.794C174.253 43.0593 174.18 44.3003 174.083 45.517C173.985 46.7337 173.888 47.9017 173.791 49.021C172.915 56.8077 170.189 61.212 165.615 62.234C161.429 63.3533 157.414 63.913 153.57 63.913C149.725 63.913 145.686 63.3533 141.452 62.234C139.213 61.6987 137.388 60.3117 135.977 58.073C134.614 55.883 133.738 52.8657 133.349 49.021C133.057 46.539 132.862 43.8867 132.765 41.064C132.667 38.1927 132.619 35.2727 132.619 32.304C132.619 29.2867 132.667 26.2937 132.765 23.325C132.911 20.3077 133.105 17.4607 133.349 14.784C133.543 12.448 133.835 10.5013 134.225 8.944C134.663 7.338 135.247 6.04833 135.977 5.075C136.707 4.10166 137.631 3.42033 138.751 3.031C139.87 2.593 141.233 2.374 142.839 2.374C144.445 2.374 145.759 2.593 146.781 3.031C147.803 3.42033 148.606 4.053 149.19 4.929C149.774 5.805 150.163 6.9 150.358 8.214C150.601 9.47933 150.723 10.988 150.723 12.74V16.682C152.572 16.0493 154.47 16.0493 156.417 16.682V12.74C156.417 10.8907 156.538 9.309 156.782 7.995C157.074 6.681 157.536 5.61033 158.169 4.783C158.85 3.95566 159.726 3.34733 160.797 2.958C161.916 2.56867 163.303 2.374 164.958 2.374C167.78 2.374 169.849 3.323 171.163 5.221C172.525 7.119 173.401 10.3067 173.791 14.784C173.888 16.244 173.961 17.777 174.01 19.383C174.107 20.9403 174.204 22.522 174.302 24.128H177.441C177.343 21.8407 177.197 19.602 177.003 17.412C176.857 15.1733 176.662 12.9347 176.419 10.696C176.029 7.046 176.686 4.36933 178.39 2.666C180.142 0.913998 182.502 0.0379978 185.471 0.0379978C188.099 0.0379978 190.24 0.767997 191.895 2.228C193.598 3.688 194.596 5.92666 194.888 8.944C195.715 16.8767 196.129 25.1013 196.129 33.618C196.129 42.1347 195.715 50.3837 194.888 58.365C194.596 61.285 193.598 63.475 191.895 64.935C190.24 66.395 188.099 67.125 185.471 67.125C184.011 67.125 182.672 66.906 181.456 66.468C180.239 66.0787 179.217 65.4703 178.39 64.643C177.611 63.8157 177.027 62.7693 176.638 61.504C176.248 60.2873 176.151 58.8517 176.346 57.197C176.638 54.6177 176.881 52.0627 177.076 49.532C177.27 46.9527 177.416 44.3733 177.514 41.794H174.302ZM147.876 36.246C149.725 36.246 151.526 36.4407 153.278 36.83C155.03 37.1707 156.709 37.779 158.315 38.655C158.607 38.801 158.874 38.801 159.118 38.655C159.41 38.4603 159.604 38.217 159.702 37.925C159.848 37.633 159.896 37.3167 159.848 36.976C159.799 36.6353 159.58 36.3433 159.191 36.1C157.487 35.1267 155.687 34.421 153.789 33.983C151.891 33.4963 150.041 33.3747 148.241 33.618C147.851 33.6667 147.535 33.837 147.292 34.129C147.097 34.3723 146.975 34.6643 146.927 35.005C146.927 35.297 147 35.589 147.146 35.881C147.292 36.1243 147.535 36.246 147.876 36.246ZM199.866 32.085C199.768 29.7977 199.914 27.8023 200.304 26.099C200.693 24.347 201.253 22.887 201.983 21.719C202.713 20.551 203.564 19.6507 204.538 19.018C205.56 18.3367 206.655 17.8743 207.823 17.631C210.84 17.047 213.468 16.0007 215.707 14.492C217.994 12.9347 219.405 10.915 219.941 8.433C220.233 6.87566 220.695 5.61033 221.328 4.637C221.96 3.66366 222.715 2.90933 223.591 2.374C224.515 1.83866 225.562 1.47366 226.73 1.279C227.946 1.08433 229.285 0.986999 230.745 0.986999C232.205 0.986999 233.494 1.08433 234.614 1.279C235.733 1.47366 236.706 1.83866 237.534 2.374C238.41 2.90933 239.14 3.63933 239.724 4.564C240.356 5.48866 240.867 6.70533 241.257 8.214C241.597 9.528 242.23 10.696 243.155 11.718C244.128 12.74 245.247 13.6403 246.513 14.419C247.778 15.1977 249.116 15.8547 250.528 16.39C251.988 16.9253 253.423 17.3633 254.835 17.704C256.149 17.996 257.268 18.6043 258.193 19.529C259.166 20.4537 259.92 21.573 260.456 22.887C261.04 24.201 261.429 25.661 261.624 27.267C261.818 28.8243 261.843 30.4303 261.697 32.085C261.453 34.275 261.04 36.1243 260.456 37.633C259.92 39.093 259.166 40.2853 258.193 41.21C257.219 42.1347 256.027 42.7917 254.616 43.181C253.204 43.5703 251.55 43.765 249.652 43.765C247.218 43.765 245.126 43.6433 243.374 43.4C241.67 43.108 240.259 42.5483 239.14 41.721C238.02 40.8937 237.193 39.7013 236.658 38.144C236.171 36.538 235.928 34.4453 235.928 31.866C235.928 28.8487 235.417 26.2693 234.395 24.128C233.421 21.9867 231.815 20.0643 229.577 18.361C229.285 18.1177 228.968 18.0447 228.628 18.142C228.287 18.1907 227.995 18.3367 227.752 18.58C227.557 18.7747 227.46 19.0423 227.46 19.383C227.508 19.675 227.727 19.967 228.117 20.259C228.993 20.843 229.771 21.5 230.453 22.23C231.134 22.96 231.718 23.836 232.205 24.858C232.691 25.8313 233.056 26.9507 233.3 28.216C233.592 29.4813 233.738 30.9657 233.738 32.669C233.738 34.859 233.47 36.6597 232.935 38.071C232.448 39.4823 231.572 40.6017 230.307 41.429C229.041 42.2077 227.314 42.7673 225.124 43.108C222.982 43.4 220.257 43.546 216.948 43.546C214.368 43.546 212.032 43.3757 209.94 43.035C207.896 42.6457 206.144 42.013 204.684 41.137C203.224 40.261 202.08 39.093 201.253 37.633C200.425 36.1243 199.963 34.275 199.866 32.085ZM206.874 65.081C204.1 64.789 201.934 63.767 200.377 62.015C198.819 60.3117 198.041 57.7567 198.041 54.35C198.041 52.9873 198.235 51.722 198.625 50.554C199.014 49.3373 199.598 48.291 200.377 47.415C201.155 46.539 202.08 45.9063 203.151 45.517C204.221 45.079 205.462 44.933 206.874 45.079C215.001 45.9063 222.934 46.32 230.672 46.32C238.458 46.32 246.44 45.9063 254.616 45.079C256.027 44.933 257.268 45.079 258.339 45.517C259.458 45.9063 260.383 46.539 261.113 47.415C261.891 48.291 262.475 49.3373 262.865 50.554C263.254 51.722 263.449 52.9873 263.449 54.35C263.449 57.7567 262.67 60.3117 261.113 62.015C259.604 63.767 257.414 64.789 254.543 65.081C246.367 65.9083 238.41 66.322 230.672 66.322C222.982 66.322 215.05 65.9083 206.874 65.081Z" fill="white"/>
</svg>
