<svg width="60" height="55" viewBox="0 0 60 55" fill="none" xmlns="http://www.w3.org/2000/svg">
<path d="M38.0001 34.3571C39.8937 34.3571 41.4287 32.8221 41.4287 30.9286C41.4287 29.035 39.8937 27.5 38.0001 27.5C36.1066 27.5 34.5715 29.035 34.5715 30.9286C34.5715 32.8221 36.1066 34.3571 38.0001 34.3571Z" stroke="#393939" stroke-width="2" stroke-linecap="round" stroke-linejoin="round"/>
<path d="M21.9999 34.3571C23.8934 34.3571 25.4284 32.8221 25.4284 30.9286C25.4284 29.035 23.8934 27.5 21.9999 27.5C20.1063 27.5 18.5713 29.035 18.5713 30.9286C18.5713 32.8221 20.1063 34.3571 21.9999 34.3571Z" stroke="#393939" stroke-width="2" stroke-linecap="round" stroke-linejoin="round"/>
<path d="M34.5716 30.9282H25.4287" stroke="#393939" stroke-width="2" stroke-linecap="round" stroke-linejoin="round"/>
<path d="M41.4286 30.9283H44.8571C45.1602 30.9283 45.4509 30.8079 45.6653 30.5936C45.8796 30.3792 46 30.0885 46 29.7854V20.6426L39.4857 13.0526C39.3784 12.9242 39.2443 12.8209 39.0927 12.7501C38.9411 12.6793 38.7759 12.6426 38.6086 12.6426H15.1429C14.8398 12.6426 14.5491 12.763 14.3347 12.9773C14.1204 13.1916 14 13.4823 14 13.7854V29.7854C14 30.0885 14.1204 30.3792 14.3347 30.5936C14.5491 30.8079 14.8398 30.9283 15.1429 30.9283H18.5714" stroke="#393939" stroke-width="2" stroke-linecap="round" stroke-linejoin="round"/>
<path d="M14 20.6426H46" stroke="#393939" stroke-width="2" stroke-linecap="round" stroke-linejoin="round"/>
<path d="M21.098 51.123H20.2143V44.5752H21.098V51.123ZM18.7689 47.7686H17.1869V47.002H18.7689V47.7686ZM19.3891 50.8594H18.5102V44.7412H19.3891V50.8594ZM21.3471 53.1543H15.2924V52.3877H21.3471V53.1543ZM16.2152 52.7979H15.2924V50.3125H16.2152V52.7979ZM17.4262 49.4629H14.0082V45.4199H17.4262V49.4629ZM14.8822 48.7402H16.5619V46.1523H14.8822V48.7402ZM28.9842 49.8047H22.8807V49.0625H28.9842V49.8047ZM29.8875 52.2754H21.8797V51.5186H29.8875V52.2754ZM26.3328 51.8555H25.41V49.4385H26.3328V51.8555ZM28.8963 46.0107H23.8279V49.3506H22.8807V45.2539H28.8963V46.0107ZM28.701 47.8809H23.5398V47.1387H28.701V47.8809ZM37.4221 53.3496H36.4992V44.5752H37.4221V53.3496ZM36.7678 48.5352H34.2678V47.7734H36.7678V48.5352ZM31.3967 47.4902H33.6574V45.2637H34.5656V51.1768H30.4641V45.2637H31.3967V47.4902ZM33.6574 50.4248V48.2275H31.3967V50.4248H33.6574ZM42.6471 45.8203C42.6471 46.4323 42.4827 47.0068 42.1539 47.5439C41.8284 48.0778 41.3938 48.5303 40.8502 48.9014C40.3066 49.2725 39.7125 49.5296 39.068 49.6729L38.6529 48.8965C39.2096 48.7858 39.732 48.5775 40.2203 48.2715C40.7086 47.9655 41.0992 47.596 41.3922 47.1631C41.6852 46.7301 41.8316 46.2826 41.8316 45.8203V45.166H42.6471V45.8203ZM42.8082 45.8203C42.8082 46.2793 42.9563 46.7269 43.2525 47.1631C43.5488 47.5993 43.9426 47.972 44.4342 48.2812C44.9257 48.5872 45.4482 48.7923 46.0016 48.8965L45.5865 49.6729C44.9485 49.5296 44.3577 49.2741 43.8141 48.9062C43.2704 48.5384 42.8342 48.0859 42.5055 47.5488C42.1767 47.0117 42.0123 46.4355 42.0123 45.8203V45.166H42.8082V45.8203ZM46.3727 52.1777H38.3648V51.4111H46.3727V52.1777Z" fill="#393939"/>
</svg>
