<svg width="60" height="57" viewBox="0 0 60 57" fill="none" xmlns="http://www.w3.org/2000/svg">
<circle cx="30" cy="20" r="6.5" stroke="#B2BAC2" stroke-width="2"/>
<path d="M40.5 34.5C40.5 34.8573 40.3377 35.2779 39.8795 35.7489C39.4168 36.2246 38.6985 36.6987 37.733 37.1185C35.8051 37.9567 33.0718 38.5 30 38.5C26.9282 38.5 24.1949 37.9567 22.267 37.1185C21.3015 36.6987 20.5832 36.2246 20.1205 35.7489C19.6623 35.2779 19.5 34.8573 19.5 34.5C19.5 34.1427 19.6623 33.7221 20.1205 33.2511C20.5832 32.7754 21.3015 32.3013 22.267 31.8815C24.1949 31.0433 26.9282 30.5 30 30.5C33.0718 30.5 35.8051 31.0433 37.733 31.8815C38.6985 32.3013 39.4168 32.7754 39.8795 33.2511C40.3377 33.7221 40.5 34.1427 40.5 34.5Z" stroke="#B2BAC2" stroke-width="2"/>
<path d="M13.9104 53.084H9.90644V47.4883H13.9104V53.084ZM10.6486 52.459H13.1486V48.1035H10.6486V52.459ZM16.2639 50.0762H17.7189V50.7402H16.2639V55.291H15.5021V46.6094H16.2639V50.0762ZM24.9459 55.3105H24.1744V46.6094H24.9459V55.3105ZM20.3268 47.2832C20.7564 47.2865 21.1389 47.4134 21.4742 47.6641C21.8095 47.9115 22.0715 48.263 22.2604 48.7188C22.4492 49.1745 22.5436 49.7051 22.5436 50.3105C22.5436 50.916 22.4492 51.4466 22.2604 51.9023C22.0715 52.3581 21.8095 52.7096 21.4742 52.957C21.1389 53.2044 20.7564 53.3281 20.3268 53.3281C19.8971 53.3281 19.513 53.2044 19.1744 52.957C18.8391 52.7096 18.5771 52.3581 18.3883 51.9023C18.2027 51.4466 18.11 50.916 18.11 50.3105C18.11 49.7051 18.2027 49.1745 18.3883 48.7188C18.5771 48.263 18.8391 47.9115 19.1744 47.6641C19.5097 47.4134 19.8938 47.2865 20.3268 47.2832ZM20.3268 47.9668C20.037 47.9701 19.7799 48.0693 19.5553 48.2646C19.3339 48.4567 19.1614 48.7301 19.0377 49.085C18.914 49.4365 18.8521 49.8451 18.8521 50.3105C18.8521 50.776 18.914 51.1862 19.0377 51.541C19.1614 51.8926 19.3355 52.1644 19.5602 52.3564C19.7848 52.5485 20.0403 52.6445 20.3268 52.6445C20.6132 52.6445 20.8687 52.5485 21.0934 52.3564C21.318 52.1644 21.4921 51.8926 21.6158 51.541C21.7395 51.1862 21.8014 50.776 21.8014 50.3105C21.8014 49.8451 21.7395 49.4365 21.6158 49.085C21.4921 48.7301 21.318 48.4567 21.0934 48.2646C20.872 48.0693 20.6165 47.9701 20.3268 47.9668ZM33.501 55.291H32.7588V46.6094H33.501V55.291ZM31.8018 54.832H31.0693V50.6035H29.8584V49.9102H31.0693V46.8242H31.8018V54.832ZM30.1123 48.3574H29.3799V52.376C29.7412 52.3499 30.0505 52.319 30.3076 52.2832L30.3564 52.8496C29.305 53.0449 27.863 53.1426 26.0303 53.1426L25.9326 52.4883C26.32 52.4883 26.626 52.4867 26.8506 52.4834V48.3574H26.1182V47.7227H30.1123V48.3574ZM27.5537 52.4688C27.9346 52.459 28.3057 52.4443 28.667 52.4248V48.3574H27.5537V52.4688ZM41.4311 55.3105H40.6596V46.6094H41.4311V55.3105ZM36.8119 47.2832C37.2416 47.2865 37.6241 47.4134 37.9594 47.6641C38.2947 47.9115 38.5567 48.263 38.7455 48.7188C38.9343 49.1745 39.0287 49.7051 39.0287 50.3105C39.0287 50.916 38.9343 51.4466 38.7455 51.9023C38.5567 52.3581 38.2947 52.7096 37.9594 52.957C37.6241 53.2044 37.2416 53.3281 36.8119 53.3281C36.3822 53.3281 35.9981 53.2044 35.6596 52.957C35.3243 52.7096 35.0622 52.3581 34.8734 51.9023C34.6879 51.4466 34.5951 50.916 34.5951 50.3105C34.5951 49.7051 34.6879 49.1745 34.8734 48.7188C35.0622 48.263 35.3243 47.9115 35.6596 47.6641C35.9949 47.4134 36.379 47.2865 36.8119 47.2832ZM36.8119 47.9668C36.5222 47.9701 36.265 48.0693 36.0404 48.2646C35.8191 48.4567 35.6465 48.7301 35.5229 49.085C35.3992 49.4365 35.3373 49.8451 35.3373 50.3105C35.3373 50.776 35.3992 51.1862 35.5229 51.541C35.6465 51.8926 35.8207 52.1644 36.0453 52.3564C36.2699 52.5485 36.5255 52.6445 36.8119 52.6445C37.0984 52.6445 37.3539 52.5485 37.5785 52.3564C37.8031 52.1644 37.9773 51.8926 38.101 51.541C38.2247 51.1862 38.2865 50.776 38.2865 50.3105C38.2865 49.8451 38.2247 49.4365 38.101 49.085C37.9773 48.7301 37.8031 48.4567 37.5785 48.2646C37.3572 48.0693 37.1016 47.9701 36.8119 47.9668ZM45.6209 49.2754C45.6209 49.7539 45.7267 50.2308 45.9383 50.7061C46.1499 51.1781 46.4347 51.5996 46.7928 51.9707C47.1541 52.3385 47.548 52.6152 47.9744 52.8008L47.5447 53.4062C47.0337 53.1719 46.573 52.8187 46.1629 52.3467C45.7527 51.8714 45.4467 51.3359 45.2449 50.7402C45.0431 51.3783 44.7371 51.9561 44.327 52.4736C43.9201 52.988 43.4692 53.3704 42.9744 53.6211L42.5154 53.0156C42.9256 52.8171 43.3081 52.5176 43.6629 52.1172C44.021 51.7168 44.3074 51.266 44.5223 50.7646C44.7371 50.2601 44.8462 49.7637 44.8494 49.2754V48.1426H42.7986V47.5078H47.6912V48.1426H45.6209V49.2754ZM49.6736 55.291H48.9021V46.6094H49.6736V55.291Z" fill="#B2BAC2"/>
</svg>
