<svg width="26" height="26" viewBox="0 0 26 26" fill="none" xmlns="http://www.w3.org/2000/svg">
<path d="M23.2916 17.3334L23.7806 17.9021C24.053 17.6678 24.121 17.2733 23.9428 16.9613L23.2916 17.3334ZM2.70825 17.3334L2.05707 16.9613C1.87881 17.2733 1.94683 17.6678 2.21926 17.9021L2.70825 17.3334ZM21.1249 13.5417H20.3749V13.7409L20.4737 13.9139L21.1249 13.5417ZM4.87492 13.5417L5.5261 13.9139L5.62492 13.7409V13.5417H4.87492ZM12.9999 21.3334C17.378 21.3334 21.3244 20.0142 23.7806 17.9021L22.8026 16.7647C20.684 18.5865 17.1161 19.8334 12.9999 19.8334V21.3334ZM2.21926 17.9021C4.67545 20.0142 8.62184 21.3334 12.9999 21.3334V19.8334C8.88374 19.8334 5.31586 18.5865 3.19725 16.7647L2.21926 17.9021ZM23.9428 16.9613L21.7761 13.1696L20.4737 13.9139L22.6404 17.7055L23.9428 16.9613ZM21.8749 13.5417V10.2917H20.3749V13.5417H21.8749ZM4.12492 10.2917V13.5417H5.62492V10.2917H4.12492ZM4.22374 13.1696L2.05707 16.9613L3.35943 17.7055L5.5261 13.9139L4.22374 13.1696ZM12.9999 1.41675C8.09839 1.41675 4.12492 5.39022 4.12492 10.2917H5.62492C5.62492 6.21865 8.92682 2.91675 12.9999 2.91675V1.41675ZM21.8749 10.2917C21.8749 5.39022 17.9014 1.41675 12.9999 1.41675V2.91675C17.073 2.91675 20.3749 6.21865 20.3749 10.2917H21.8749ZM7.91658 19.5001C7.91658 22.3075 10.1925 24.5834 12.9999 24.5834V23.0834C11.0209 23.0834 9.41658 21.4791 9.41658 19.5001H7.91658ZM12.9999 24.5834C15.8074 24.5834 18.0833 22.3075 18.0833 19.5001H16.5833C16.5833 21.4791 14.9789 23.0834 12.9999 23.0834V24.5834Z" fill="#323135"/>
</svg>
