<svg width="155" height="136" viewBox="0 0 155 136" fill="none" xmlns="http://www.w3.org/2000/svg">
<path d="M38 79.53H117V0.529999H38V79.53Z" fill="#333333"/>
<path d="M39.4165 100.463H35.1489V98.5703H39.4165V100.463ZM31.2524 95.5366C32.0812 95.5304 32.8358 95.7005 33.5161 96.0469C34.1965 96.387 34.7345 96.8633 35.1304 97.4756C35.5262 98.0879 35.7241 98.7744 35.7241 99.5352C35.7241 100.308 35.5262 101.004 35.1304 101.623C34.7345 102.235 34.1965 102.714 33.5161 103.061C32.842 103.407 32.0874 103.58 31.2524 103.58C30.3927 103.58 29.6196 103.407 28.9331 103.061C28.2528 102.714 27.7178 102.235 27.3281 101.623C26.9447 101.004 26.7529 100.308 26.7529 99.5352C26.7529 98.7744 26.9447 98.0879 27.3281 97.4756C27.7178 96.8633 28.2559 96.387 28.9424 96.0469C29.6289 95.7005 30.3989 95.5304 31.2524 95.5366ZM31.2524 97.5127C30.8133 97.5065 30.4237 97.5838 30.0835 97.7446C29.7433 97.9054 29.4774 98.1405 29.2856 98.4497C29.0939 98.7528 28.998 99.1146 28.998 99.5352C28.998 99.9495 29.0939 100.314 29.2856 100.63C29.4774 100.939 29.7433 101.18 30.0835 101.354C30.4237 101.521 30.8133 101.604 31.2524 101.604C31.6854 101.604 32.0688 101.521 32.4028 101.354C32.7368 101.18 32.9966 100.939 33.1821 100.63C33.3677 100.314 33.4604 99.9495 33.4604 99.5352C33.4604 99.1208 33.3677 98.759 33.1821 98.4497C32.9966 98.1405 32.7368 97.9054 32.4028 97.7446C32.0688 97.5838 31.6854 97.5065 31.2524 97.5127ZM40.771 103.905H38.4146V94.8037H40.771V103.905ZM31.8462 106.261H38.4146V104.638H40.771V111.521H29.5083V104.638H31.8462V106.261ZM38.4146 109.61V108.089H31.8462V109.61H38.4146ZM57.5908 111.707H55.3271V94.8037H57.5908V111.707ZM52.7944 102.921H48.7866V100.992H52.7944V102.921ZM54.019 110.946H51.8203V95.1099H54.019V110.946ZM44.6396 105.992C45.9694 105.992 47.061 105.961 47.9146 105.899C48.7743 105.838 49.6525 105.717 50.5493 105.538L50.7349 107.477C49.8381 107.656 48.9351 107.777 48.0259 107.838C47.1167 107.9 45.988 107.934 44.6396 107.94H43.4707V105.992H44.6396ZM49.937 98.626H45.79V106.818H43.4707V96.7334H49.937V98.626ZM73.52 111.753H71.1172V94.8037H73.52V111.753ZM64.3447 96.0005C65.1921 96.0005 65.9528 96.2479 66.627 96.7427C67.3073 97.2375 67.8361 97.9395 68.2134 98.8486C68.5968 99.7578 68.7886 100.815 68.7886 102.021C68.7886 103.234 68.5968 104.294 68.2134 105.204C67.8361 106.113 67.3073 106.815 66.627 107.31C65.9528 107.798 65.1921 108.042 64.3447 108.042C63.485 108.042 62.715 107.798 62.0347 107.31C61.3605 106.815 60.8317 106.113 60.4482 105.204C60.0648 104.294 59.873 103.234 59.873 102.021C59.873 100.815 60.0648 99.7578 60.4482 98.8486C60.8317 97.9395 61.3605 97.2375 62.0347 96.7427C62.715 96.2479 63.485 96.0005 64.3447 96.0005ZM64.3447 98.1436C63.9118 98.1374 63.5283 98.2858 63.1943 98.5889C62.8665 98.8857 62.613 99.328 62.4336 99.9155C62.2604 100.497 62.1738 101.199 62.1738 102.021C62.1738 102.844 62.2604 103.546 62.4336 104.127C62.613 104.709 62.8665 105.151 63.1943 105.454C63.5283 105.751 63.9118 105.899 64.3447 105.899C64.7715 105.899 65.1488 105.751 65.4766 105.454C65.8044 105.151 66.0579 104.709 66.2373 104.127C66.4167 103.546 66.5063 102.844 66.5063 102.021C66.5063 101.199 66.4167 100.497 66.2373 99.9155C66.0579 99.328 65.8044 98.8857 65.4766 98.5889C65.1549 98.2858 64.7777 98.1374 64.3447 98.1436ZM89.5698 105.417H77.6206V103.552H89.5698V105.417ZM91.249 109.74H75.8115V107.82H91.249V109.74ZM89.4399 97.9858H80.0327V104.053H77.6206V96.0562H89.4399V97.9858ZM89.041 101.613H79.3276V99.7671H89.041V101.613ZM106.269 100.463H103.384V98.561H106.269V100.463ZM106.269 105.705H103.384V103.775H106.269V105.705ZM111.26 111.707H108.987V94.8037H111.26V111.707ZM107.8 110.928H105.583V95.0635H107.8V110.928ZM100.443 96.019C101.191 96.019 101.847 96.2664 102.41 96.7612C102.972 97.2498 103.405 97.9549 103.708 98.8765C104.018 99.798 104.172 100.883 104.172 102.133C104.172 103.376 104.018 104.461 103.708 105.389C103.405 106.311 102.972 107.022 102.41 107.523C101.847 108.018 101.191 108.268 100.443 108.274C99.7007 108.268 99.0513 108.018 98.4946 107.523C97.938 107.022 97.5081 106.311 97.2051 105.389C96.9082 104.461 96.7598 103.376 96.7598 102.133C96.7598 100.877 96.9082 99.7918 97.2051 98.8765C97.5081 97.9549 97.938 97.2498 98.4946 96.7612C99.0575 96.2664 99.7069 96.019 100.443 96.019ZM100.443 98.2642C100.115 98.258 99.8368 98.4002 99.6079 98.6909C99.3853 98.9754 99.2121 99.4053 99.0884 99.9805C98.9709 100.556 98.9121 101.273 98.9121 102.133C98.9121 102.993 98.9709 103.71 99.0884 104.285C99.2121 104.86 99.3853 105.29 99.6079 105.575C99.8368 105.859 100.115 106.001 100.443 106.001C100.777 106.001 101.058 105.859 101.287 105.575C101.522 105.29 101.701 104.857 101.825 104.276C101.955 103.694 102.02 102.98 102.02 102.133C102.02 101.279 101.955 100.565 101.825 99.9897C101.701 99.4146 101.522 98.9816 101.287 98.6909C101.052 98.4002 100.771 98.258 100.443 98.2642ZM125.529 100.853H122.282V98.9321H125.529V100.853ZM127.273 104.851H124.917V94.8037H127.273V104.851ZM121.502 105.222C122.708 105.222 123.748 105.352 124.62 105.612C125.492 105.865 126.16 106.236 126.624 106.725C127.094 107.214 127.329 107.798 127.329 108.479C127.329 109.153 127.094 109.731 126.624 110.213C126.16 110.702 125.492 111.076 124.62 111.336C123.748 111.596 122.708 111.729 121.502 111.735C120.309 111.729 119.276 111.596 118.404 111.336C117.538 111.076 116.87 110.702 116.4 110.213C115.936 109.731 115.704 109.153 115.704 108.479C115.704 107.798 115.936 107.214 116.4 106.725C116.87 106.236 117.538 105.865 118.404 105.612C119.276 105.352 120.309 105.222 121.502 105.222ZM121.502 107.022C120.76 107.022 120.132 107.075 119.619 107.18C119.106 107.285 118.716 107.446 118.45 107.662C118.184 107.879 118.051 108.151 118.051 108.479C118.051 108.788 118.184 109.054 118.45 109.276C118.716 109.493 119.106 109.657 119.619 109.768C120.132 109.873 120.76 109.926 121.502 109.926C122.263 109.926 122.9 109.873 123.414 109.768C123.927 109.657 124.313 109.493 124.573 109.276C124.833 109.054 124.963 108.788 124.963 108.479C124.963 108.151 124.833 107.879 124.573 107.662C124.313 107.446 123.927 107.285 123.414 107.18C122.9 107.075 122.263 107.022 121.502 107.022ZM118.933 97.624C118.933 98.7188 118.756 99.7454 118.404 100.704C118.051 101.663 117.516 102.507 116.799 103.237C116.088 103.96 115.212 104.502 114.173 104.86L112.939 102.977C113.842 102.674 114.597 102.244 115.203 101.688C115.815 101.125 116.267 100.494 116.558 99.7949C116.854 99.0898 117.003 98.3662 117.003 97.624V96.5107H118.933V97.624ZM119.415 97.6055C119.415 98.292 119.554 98.9569 119.833 99.6001C120.117 100.243 120.55 100.825 121.131 101.344C121.713 101.864 122.436 102.269 123.302 102.56L122.133 104.415C121.113 104.081 120.253 103.574 119.554 102.894C118.861 102.207 118.345 101.409 118.005 100.5C117.665 99.5908 117.495 98.626 117.495 97.6055V96.5107H119.415V97.6055ZM122.783 97.7446H113.617V95.8335H122.783V97.7446Z" fill="#333333"/>
<path d="M8.63672 129.414H7.5293V123.502H8.63672V129.414ZM10.166 126.895H8.29688V125.992H10.166V126.895ZM8.89453 130.826H1.83984V129.936H8.89453V130.826ZM9.02344 133.832H1.75195V132.93H9.02344V133.832ZM4.34766 133.381H3.26367V130.158H4.34766V133.381ZM7.48242 133.381H6.4043V130.158H7.48242V133.381ZM3.33984 124.076C3.87109 124.076 4.34766 124.182 4.76953 124.393C5.19531 124.604 5.5293 124.898 5.77148 125.277C6.01758 125.656 6.14062 126.088 6.14062 126.572C6.14062 127.045 6.01758 127.471 5.77148 127.85C5.5293 128.225 5.19531 128.516 4.76953 128.723C4.34766 128.93 3.87109 129.033 3.33984 129.033C2.80469 129.033 2.32617 128.928 1.9043 128.717C1.48242 128.506 1.15039 128.215 0.908203 127.844C0.666016 127.469 0.544922 127.045 0.544922 126.572C0.544922 126.088 0.666016 125.656 0.908203 125.277C1.15039 124.898 1.48242 124.604 1.9043 124.393C2.32617 124.182 2.80469 124.076 3.33984 124.076ZM3.33984 125.014C3.01562 125.014 2.72266 125.078 2.46094 125.207C2.20312 125.332 2 125.514 1.85156 125.752C1.70703 125.986 1.63477 126.26 1.63477 126.572C1.63477 126.873 1.70703 127.141 1.85156 127.375C2 127.605 2.20312 127.785 2.46094 127.914C2.72266 128.043 3.01562 128.109 3.33984 128.113C3.66406 128.109 3.95703 128.043 4.21875 127.914C4.48047 127.785 4.68359 127.605 4.82812 127.375C4.97656 127.141 5.05078 126.873 5.05078 126.572C5.05078 126.26 4.97656 125.986 4.82812 125.752C4.68359 125.514 4.48047 125.332 4.21875 125.207C3.95703 125.078 3.66406 125.014 3.33984 125.014ZM14.9449 124.129C15.6793 124.129 16.3395 124.252 16.9254 124.498C17.5152 124.74 17.9781 125.084 18.3141 125.529C18.65 125.971 18.818 126.479 18.818 127.053C18.818 127.631 18.65 128.145 18.3141 128.594C17.9781 129.039 17.5152 129.383 16.9254 129.625C16.3395 129.863 15.6793 129.982 14.9449 129.982C14.2145 129.982 13.5543 129.863 12.9645 129.625C12.3785 129.383 11.9156 129.039 11.5758 128.594C11.2359 128.145 11.066 127.631 11.066 127.053C11.066 126.479 11.2359 125.969 11.5758 125.523C11.9156 125.078 12.3785 124.734 12.9645 124.492C13.5543 124.25 14.2145 124.129 14.9449 124.129ZM14.9449 125.031C14.4098 125.023 13.9293 125.105 13.5035 125.277C13.0777 125.445 12.7437 125.686 12.5016 125.998C12.2594 126.307 12.1383 126.658 12.1383 127.053C12.1383 127.455 12.2594 127.811 12.5016 128.119C12.7437 128.424 13.0777 128.66 13.5035 128.828C13.9293 128.996 14.4098 129.08 14.9449 129.08C15.4762 129.08 15.9527 128.996 16.3746 128.828C16.7965 128.66 17.1285 128.424 17.3707 128.119C17.6129 127.811 17.734 127.455 17.734 127.053C17.734 126.658 17.6129 126.307 17.3707 125.998C17.1285 125.686 16.7965 125.445 16.3746 125.277C15.9527 125.105 15.4762 125.023 14.9449 125.031ZM19.7672 132.637H10.1578V131.723H19.7672V132.637ZM29.5383 132.736H19.9289V131.816H29.5383V132.736ZM25.2551 132.209H24.1652V129.648H25.2551V132.209ZM28.3605 127.516H22.2082V129.531H21.1008V126.625H27.2648V125.148H21.0832V124.24H28.3605V127.516ZM28.6066 129.965H21.1008V129.051H28.6066V129.965ZM33.1277 124.234C33.6785 124.234 34.1688 124.342 34.5984 124.557C35.0281 124.768 35.3641 125.064 35.6063 125.447C35.8523 125.826 35.9754 126.258 35.9754 126.742C35.9754 127.227 35.8523 127.66 35.6063 128.043C35.3641 128.422 35.0281 128.719 34.5984 128.934C34.1688 129.145 33.6785 129.25 33.1277 129.25C32.5809 129.25 32.0887 129.145 31.6512 128.934C31.2137 128.719 30.8719 128.422 30.6258 128.043C30.3836 127.66 30.2625 127.227 30.2625 126.742C30.2625 126.258 30.3836 125.826 30.6258 125.447C30.8719 125.064 31.2137 124.768 31.6512 124.557C32.0887 124.342 32.5809 124.234 33.1277 124.234ZM33.1277 125.207C32.7879 125.207 32.4832 125.27 32.2137 125.395C31.948 125.52 31.7391 125.699 31.5867 125.934C31.4344 126.168 31.3582 126.438 31.3582 126.742C31.3582 127.047 31.4344 127.314 31.5867 127.545C31.7391 127.775 31.948 127.955 32.2137 128.084C32.4832 128.213 32.7879 128.277 33.1277 128.277C33.4676 128.277 33.7703 128.213 34.0359 128.084C34.3055 127.955 34.5145 127.775 34.6629 127.545C34.8152 127.314 34.8914 127.047 34.8914 126.742C34.8914 126.438 34.8152 126.168 34.6629 125.934C34.5145 125.699 34.3055 125.52 34.0359 125.395C33.7703 125.27 33.4676 125.207 33.1277 125.207ZM38.3836 134.02H37.2762V123.49H38.3836V134.02ZM29.7527 130.832C30.6199 130.828 31.4051 130.818 32.1082 130.803C32.8152 130.787 33.5652 130.756 34.3582 130.709C35.1551 130.658 35.907 130.582 36.6141 130.48L36.6961 131.295C35.9656 131.428 35.2059 131.529 34.4168 131.6C33.6316 131.666 32.8934 131.709 32.202 131.729C31.5105 131.748 30.743 131.758 29.8992 131.758L29.7527 130.832ZM50.7539 131.348H49.6934V123.49H50.7539V131.348ZM47.959 127.322H46.0605V126.402H47.959V127.322ZM48.7031 131.031H47.6484V123.689H48.7031V131.031ZM51.0527 133.785H43.7871V132.865H51.0527V133.785ZM44.8945 133.357H43.7871V130.375H44.8945V133.357ZM46.3477 129.355H42.2461V124.504H46.3477V129.355ZM43.2949 128.488H45.3105V125.383H43.2949V128.488ZM60.0973 129.766H52.773V128.875H60.0973V129.766ZM61.1813 132.73H51.5719V131.822H61.1813V132.73ZM56.9156 132.227H55.8082V129.326H56.9156V132.227ZM59.9918 125.213H53.9098V129.221H52.773V124.305H59.9918V125.213ZM59.7574 127.457H53.5641V126.566H59.7574V127.457ZM70.1027 134.02H68.9953V123.49H70.1027V134.02ZM69.3176 128.242H66.3176V127.328H69.3176V128.242ZM62.8723 126.988H65.5852V124.316H66.675V131.412H61.7531V124.316H62.8723V126.988ZM65.5852 130.51V127.873H62.8723V130.51H65.5852ZM76.2527 124.984C76.2527 125.719 76.0555 126.408 75.6609 127.053C75.2703 127.693 74.7488 128.236 74.0965 128.682C73.4441 129.127 72.7312 129.436 71.9578 129.607L71.4598 128.676C72.1277 128.543 72.7547 128.293 73.3406 127.926C73.9266 127.559 74.3953 127.115 74.7469 126.596C75.0984 126.076 75.2742 125.539 75.2742 124.984V124.199H76.2527V124.984ZM76.4461 124.984C76.4461 125.535 76.6238 126.072 76.9793 126.596C77.3348 127.119 77.8074 127.566 78.3973 127.938C78.9871 128.305 79.6141 128.551 80.2781 128.676L79.7801 129.607C79.0145 129.436 78.3055 129.129 77.6531 128.688C77.0008 128.246 76.4773 127.703 76.0828 127.059C75.6883 126.414 75.491 125.723 75.491 124.984V124.199H76.4461V124.984ZM80.7234 132.613H71.1141V131.693H80.7234V132.613ZM90.4828 129.168H80.8734V128.312H90.4828V129.168ZM89.2992 132.215H83.1352V133.352H82.0219V131.477H88.1977V130.703H82.0102V129.895H89.2992V132.215ZM89.6273 133.867H82.0219V133.082H89.6273V133.867ZM89.2699 126.039H83.2113V127.1H82.1098V125.301H88.1566V124.551H82.0805V123.766H89.2699V126.039ZM89.4574 127.621H82.1098V126.842H89.4574V127.621ZM101.716 133.99H100.591V123.49H101.716V133.99ZM98.5992 124.621C98.5992 125.691 98.4332 126.682 98.1012 127.592C97.773 128.498 97.2457 129.334 96.5191 130.1C95.7926 130.861 94.8473 131.521 93.6832 132.08L93.0855 131.178C94.0973 130.701 94.9273 130.146 95.5758 129.514C96.2281 128.881 96.7105 128.174 97.023 127.393C97.3355 126.611 97.4918 125.748 97.4918 124.803V124.621H98.5992ZM97.9723 125.512H93.5953V124.621H97.9723V125.512ZM111.769 133.99H110.714V123.49H111.769V133.99ZM110.984 128.57H109.021V127.662H110.984V128.57ZM109.343 133.463H108.323V123.707H109.343V133.463ZM103.812 130.527C104.636 130.527 105.329 130.51 105.892 130.475C106.454 130.436 107.027 130.359 107.609 130.246L107.696 131.166C107.103 131.283 106.517 131.363 105.939 131.406C105.364 131.445 104.655 131.467 103.812 131.471H103.114V130.527H103.812ZM107.046 125.664H104.222V130.973H103.114V124.756H107.046V125.664ZM117.714 126.133H112.505V125.236H117.714V126.133ZM115.118 126.76C115.559 126.76 115.952 126.863 116.296 127.07C116.643 127.273 116.915 127.559 117.11 127.926C117.305 128.293 117.403 128.713 117.403 129.186C117.403 129.654 117.305 130.074 117.11 130.445C116.915 130.812 116.643 131.102 116.296 131.312C115.952 131.523 115.559 131.629 115.118 131.629C114.68 131.629 114.288 131.523 113.94 131.312C113.596 131.102 113.327 130.811 113.132 130.439C112.94 130.068 112.845 129.65 112.845 129.186C112.845 128.721 112.94 128.303 113.132 127.932C113.327 127.561 113.596 127.273 113.94 127.07C114.288 126.863 114.68 126.76 115.118 126.76ZM115.118 127.691C114.872 127.691 114.649 127.756 114.45 127.885C114.255 128.01 114.102 128.186 113.993 128.412C113.884 128.635 113.829 128.893 113.829 129.186C113.829 129.475 113.884 129.732 113.993 129.959C114.106 130.186 114.261 130.359 114.456 130.48C114.651 130.602 114.872 130.662 115.118 130.662C115.368 130.662 115.591 130.602 115.786 130.48C115.985 130.359 116.141 130.186 116.255 129.959C116.368 129.732 116.425 129.475 116.425 129.186C116.425 128.893 116.368 128.635 116.255 128.412C116.141 128.186 115.985 128.01 115.786 127.885C115.591 127.756 115.368 127.691 115.118 127.691ZM121.516 133.99H120.456V123.49H121.516V133.99ZM120.807 128.775H118.886V127.867H120.807V128.775ZM119.249 133.498H118.2V123.736H119.249V133.498ZM115.675 125.793H114.573V123.801H115.675V125.793ZM127.426 124.979C127.426 125.584 127.239 126.141 126.864 126.648C126.489 127.156 125.987 127.58 125.358 127.92C124.729 128.26 124.03 128.49 123.26 128.611L122.832 127.738C123.489 127.645 124.094 127.461 124.649 127.188C125.204 126.914 125.643 126.584 125.967 126.197C126.291 125.811 126.454 125.404 126.454 124.979V124.574H127.426V124.979ZM127.719 124.979C127.719 125.404 127.879 125.811 128.2 126.197C128.524 126.584 128.963 126.914 129.518 127.188C130.077 127.461 130.684 127.645 131.34 127.738L130.936 128.611C130.162 128.49 129.457 128.262 128.821 127.926C128.188 127.59 127.684 127.166 127.309 126.654C126.938 126.143 126.752 125.584 126.752 124.979V124.574H127.719V124.979ZM127.614 133.996H126.518V130.029H127.614V133.996ZM131.873 130.322H122.299V129.414H131.873V130.322ZM130.977 125.008H123.184V124.117H130.977V125.008ZM138.211 128.113H136.242V127.182H138.211V128.113ZM135.064 126.408C135.064 127.162 134.969 127.891 134.777 128.594C134.59 129.297 134.312 129.926 133.945 130.48C133.578 131.031 133.137 131.465 132.621 131.781L131.924 130.949C132.404 130.66 132.816 130.275 133.16 129.795C133.504 129.311 133.762 128.777 133.934 128.195C134.109 127.613 134.197 127.018 134.197 126.408V124.451H135.064V126.408ZM135.27 126.361C135.27 126.943 135.35 127.512 135.51 128.066C135.67 128.617 135.908 129.123 136.225 129.584C136.545 130.045 136.93 130.414 137.379 130.691L136.758 131.547C136.25 131.242 135.822 130.818 135.475 130.275C135.127 129.729 134.865 129.121 134.689 128.453C134.518 127.785 134.432 127.088 134.432 126.361V124.451H135.27V126.361ZM141.105 133.99H140.033V123.49H141.105V133.99ZM138.926 133.475H137.877V123.689H138.926V133.475ZM145.24 131.963H144.144V128.887H145.24V131.963ZM149.154 131.963H148.035V128.887H149.154V131.963ZM151.451 132.684H141.841V131.764H151.451V132.684ZM146.629 124.1C147.379 124.1 148.046 124.215 148.632 124.445C149.218 124.672 149.675 124.994 150.004 125.412C150.336 125.826 150.502 126.303 150.502 126.842C150.502 127.385 150.336 127.863 150.004 128.277C149.675 128.688 149.218 129.008 148.632 129.238C148.046 129.465 147.379 129.578 146.629 129.578C145.882 129.578 145.214 129.465 144.625 129.238C144.039 129.008 143.58 128.688 143.248 128.277C142.916 127.863 142.75 127.385 142.75 126.842C142.75 126.303 142.916 125.826 143.248 125.412C143.58 124.994 144.039 124.672 144.625 124.445C145.214 124.215 145.882 124.1 146.629 124.1ZM146.629 125.002C146.082 124.998 145.597 125.072 145.175 125.225C144.757 125.373 144.429 125.588 144.191 125.869C143.957 126.146 143.839 126.471 143.839 126.842C143.839 127.213 143.957 127.539 144.191 127.82C144.429 128.102 144.759 128.32 145.181 128.477C145.603 128.633 146.086 128.711 146.629 128.711C147.168 128.711 147.648 128.633 148.07 128.477C148.492 128.32 148.822 128.102 149.06 127.82C149.298 127.539 149.418 127.213 149.418 126.842C149.418 126.471 149.298 126.146 149.06 125.869C148.826 125.588 148.498 125.373 148.076 125.225C147.654 125.072 147.171 124.998 146.629 125.002ZM153.441 130.562H152.286L152.175 124.516H153.546L153.441 130.562ZM152.861 133.082C152.716 133.082 152.579 133.043 152.45 132.965C152.321 132.887 152.22 132.785 152.146 132.66C152.071 132.531 152.034 132.393 152.034 132.244C152.034 132.1 152.071 131.963 152.146 131.834C152.22 131.705 152.321 131.605 152.45 131.535C152.579 131.461 152.716 131.424 152.861 131.424C153.009 131.424 153.146 131.461 153.271 131.535C153.4 131.605 153.501 131.705 153.575 131.834C153.654 131.963 153.693 132.1 153.693 132.244C153.693 132.393 153.654 132.531 153.575 132.66C153.501 132.785 153.4 132.887 153.271 132.965C153.146 133.043 153.009 133.082 152.861 133.082Z" fill="#333333"/>
</svg>
