<svg width="49" height="50" viewBox="0 0 49 50" fill="none" xmlns="http://www.w3.org/2000/svg">
<rect width="49" height="50" rx="24.5" fill="#4E98EE"/>
<path d="M36.4139 18.6717L30.8289 13.0855C30.6432 12.8997 30.4227 12.7523 30.18 12.6518C29.9373 12.5513 29.6772 12.4995 29.4145 12.4995C29.1518 12.4995 28.8917 12.5513 28.649 12.6518C28.4064 12.7523 28.1859 12.8997 28.0001 13.0855L12.5864 28.5005C12.3999 28.6855 12.252 28.9058 12.1513 29.1485C12.0507 29.3912 11.9993 29.6515 12.0001 29.9142V35.5005C12.0001 36.0309 12.2108 36.5396 12.5859 36.9147C12.961 37.2897 13.4697 37.5005 14.0001 37.5005H19.5864C19.8491 37.5013 20.1094 37.4499 20.3521 37.3493C20.5948 37.2486 20.8151 37.1007 21.0001 36.9142L36.4139 21.5005C36.5996 21.3147 36.747 21.0942 36.8475 20.8516C36.9481 20.6089 36.9998 20.3488 36.9998 20.0861C36.9998 19.8234 36.9481 19.5633 36.8475 19.3206C36.747 19.0779 36.5996 18.8574 36.4139 18.6717ZM14.4139 29.5005L25.7076 18.2067L27.7926 20.293L16.5001 31.5855L14.4139 29.5005ZM14.0001 31.9142L17.5864 35.5005H14.0001V31.9142ZM20.0001 35.0867L17.9139 33.0005L29.2076 21.7067L31.2926 23.793L20.0001 35.0867Z" fill="white"/>
</svg>
