<svg width="49" height="50" viewBox="0 0 49 50" fill="none" xmlns="http://www.w3.org/2000/svg">
<rect width="49" height="50" rx="24.5" fill="#4E98EE"/>
<path d="M37 25C37 25.3978 36.842 25.7794 36.5607 26.0607C36.2794 26.342 35.8978 26.5 35.5 26.5H26V36C26 36.3978 25.842 36.7794 25.5607 37.0607C25.2794 37.342 24.8978 37.5 24.5 37.5C24.1022 37.5 23.7206 37.342 23.4393 37.0607C23.158 36.7794 23 36.3978 23 36V26.5H13.5C13.1022 26.5 12.7206 26.342 12.4393 26.0607C12.158 25.7794 12 25.3978 12 25C12 24.6022 12.158 24.2206 12.4393 23.9393C12.7206 23.658 13.1022 23.5 13.5 23.5H23V14C23 13.6022 23.158 13.2206 23.4393 12.9393C23.7206 12.658 24.1022 12.5 24.5 12.5C24.8978 12.5 25.2794 12.658 25.5607 12.9393C25.842 13.2206 26 13.6022 26 14V23.5H35.5C35.8978 23.5 36.2794 23.658 36.5607 23.9393C36.842 24.2206 37 24.6022 37 25Z" fill="white"/>
</svg>
