<svg width="60" height="55" viewBox="0 0 60 55" fill="none" xmlns="http://www.w3.org/2000/svg">
<path d="M30 34H20.413C20.1709 34 19.9387 33.9038 19.7674 33.7326C19.5962 33.5613 19.5 33.3291 19.5 33.087V23.5C19.5 20.7152 20.6062 18.0445 22.5754 16.0754C24.5445 14.1062 27.2152 13 30 13C31.3789 13 32.7443 13.2716 34.0182 13.7993C35.2921 14.3269 36.4496 15.1004 37.4246 16.0754C38.3996 17.0504 39.1731 18.2079 39.7007 19.4818C40.2284 20.7557 40.5 22.1211 40.5 23.5C40.5 24.8789 40.2284 26.2443 39.7007 27.5182C39.1731 28.7921 38.3996 29.9496 37.4246 30.9246C36.4496 31.8996 35.2921 32.6731 34.0182 33.2007C32.7443 33.7284 31.3789 34 30 34Z" stroke="#B2BAC2" stroke-width="2" stroke-linecap="round" stroke-linejoin="round"/>
<path d="M20.6293 45.3574V45.4648C20.6228 46.181 20.6 46.8239 20.5609 47.3936C20.5251 47.96 20.4405 48.6159 20.307 49.3613L19.5258 49.2734C19.6299 48.7591 19.7048 48.2741 19.7504 47.8184C19.7992 47.3626 19.8285 46.9574 19.8383 46.6025C19.8513 46.2477 19.8578 45.8327 19.8578 45.3574V45.123H14.5063V44.4883H20.6293V45.3574ZM21.5766 51.0605H13.6664V50.4258H16.7719V47.3203H17.5238V50.4258H21.5766V51.0605ZM26.4402 48.3945H22.368V44.3711H26.4402V48.3945ZM23.1199 47.7793H25.6883V45.0059H23.1199V47.7793ZM29.077 49.8594H28.3152V43.6191H29.077V49.8594ZM29.3504 51.998H23.4715V49.2539H24.2332V51.3633H29.3504V51.998ZM37.3488 52.3105H36.5871V47.4766H34.507V50.1133H30.5031V44.293H31.2746V46.5586H33.7551V44.293H34.507V46.8418H36.5871V43.6094H37.3488V52.3105ZM33.7551 49.4785V47.1738H31.2746V49.4785H33.7551ZM42.7203 44.8887C42.7203 45.3607 42.8782 45.818 43.1939 46.2607C43.513 46.7002 43.9215 47.0745 44.4195 47.3838C44.9176 47.6898 45.4221 47.89 45.9332 47.9844L45.5816 48.6289C45.1389 48.5247 44.7027 48.3555 44.273 48.1211C43.8434 47.8867 43.4576 47.597 43.1158 47.252C42.774 46.9069 42.512 46.5277 42.3297 46.1143C42.1474 46.5244 41.8854 46.902 41.5436 47.2471C41.2018 47.5921 40.816 47.8835 40.3863 48.1211C39.9599 48.3555 39.5237 48.5247 39.0777 48.6289L38.7262 47.9844C39.2372 47.8835 39.7402 47.6816 40.235 47.3789C40.7298 47.0729 41.1334 46.7002 41.4459 46.2607C41.7617 45.8213 41.9195 45.3639 41.9195 44.8887V44.2246H42.7203V44.8887ZM46.3434 51.1094H38.3941V50.4746H46.3434V51.1094Z" fill="#B2BAC2"/>
</svg>
