<svg width="9" height="6" viewBox="0 0 9 6" fill="none" xmlns="http://www.w3.org/2000/svg">
<path d="M1.61578 1.02863L1.61578 1.02862C1.53772 0.946854 1.43083 0.9 1.31834 0.9C1.20585 0.9 1.09897 0.946854 1.02091 1.02862C0.943 1.11024 0.9 1.21998 0.9 1.33348C0.9 1.44699 0.943 1.55673 1.02091 1.63834L4.20253 4.97126C4.24114 5.01175 4.28724 5.04413 4.33833 5.06632C4.38943 5.08851 4.44438 5.1 4.5 5.1C4.55561 5.1 4.61057 5.08851 4.66167 5.06632C4.71276 5.04413 4.75886 5.01175 4.79747 4.97126L7.97909 1.63834C8.0177 1.59789 8.0481 1.55012 8.06876 1.49787C8.08942 1.44563 8.1 1.38978 8.1 1.33348C8.1 1.27718 8.08942 1.22134 8.06876 1.16909C8.0481 1.11684 8.0177 1.06907 7.97909 1.02862C7.94047 0.988167 7.89437 0.955813 7.84329 0.933648C7.79219 0.911478 7.73726 0.9 7.68166 0.9C7.62606 0.9 7.57112 0.911478 7.52003 0.933648C7.46895 0.955813 7.42284 0.988167 7.38422 1.02862L7.38422 1.02863L4.5 4.05041L1.61578 1.02863Z" fill="#47A5D9" stroke="#47A5D9" stroke-width="0.2"/>
</svg>
