<svg width="12" height="7" viewBox="0 0 12 7" fill="none" xmlns="http://www.w3.org/2000/svg">
<rect width="12" height="7" fill="#3A3A3A"/>
<g id="MAIN">
<path d="M-234 -318C-234 -346.719 -210.719 -370 -182 -370H432C460.719 -370 484 -346.719 484 -318V803C484 831.719 460.719 855 432 855H-182C-210.719 855 -234 831.719 -234 803V-318Z" fill="#313131"/>
<path d="M-182 -369H432V-371H-182V-369ZM483 -318V803H485V-318H483ZM432 854H-182V856H432V854ZM-233 803V-318H-235V803H-233ZM-182 854C-210.167 854 -233 831.167 -233 803H-235C-235 832.271 -211.271 856 -182 856V854ZM483 803C483 831.167 460.167 854 432 854V856C461.271 856 485 832.271 485 803H483ZM432 -369C460.167 -369 483 -346.167 483 -318H485C485 -347.271 461.271 -371 432 -371V-369ZM-182 -371C-211.271 -371 -235 -347.271 -235 -318H-233C-233 -346.167 -210.167 -369 -182 -369V-371Z" fill="white" fill-opacity="0.1"/>
<g id="iPhone 13 &#38; 14 - 30" clip-path="url(#clip0_134_2416)">
<rect width="390" height="844" transform="translate(-92 -78)" fill="white"/>
<g id="Frame 1017">
<path id="Vector" d="M6 5.06987L1.88734 0.545615L1.88734 0.545607C1.77527 0.422335 1.62003 0.35 1.45478 0.35C1.28952 0.35 1.13428 0.422335 1.02221 0.545607C0.910573 0.668403 0.85 0.83214 0.85 1.00022C0.85 1.1683 0.910573 1.33204 1.02221 1.45484L5.56738 6.45422C5.5674 6.45424 5.56742 6.45426 5.56744 6.45428C5.62283 6.51526 5.68938 6.56448 5.76371 6.59837C5.83812 6.6323 5.91846 6.65 6 6.65C6.08154 6.65 6.16188 6.6323 6.23629 6.59837C6.31062 6.56448 6.37717 6.51526 6.43256 6.45428C6.43258 6.45426 6.4326 6.45424 6.43262 6.45422L10.9778 1.45484C11.0332 1.39391 11.0765 1.32233 11.1058 1.24451C11.1351 1.1667 11.15 1.08373 11.15 1.00022C11.15 0.916714 11.1351 0.833741 11.1058 0.755934C11.0765 0.678115 11.0332 0.606536 10.9778 0.545607C10.9224 0.48465 10.8558 0.435449 10.7815 0.401577C10.7071 0.367682 10.6267 0.35 10.5452 0.35C10.4637 0.35 10.3834 0.367682 10.309 0.401577C10.2347 0.435449 10.1681 0.48465 10.1127 0.545606L10.1127 0.545615L6 5.06987Z" fill="#333333" stroke="#333333" stroke-width="0.3"/>
</g>
</g>
</g>
<defs>
<clipPath id="clip0_134_2416">
<rect width="390" height="844" fill="white" transform="translate(-92 -78)"/>
</clipPath>
</defs>
</svg>
