<svg width="14" height="15" viewBox="0 0 14 15" fill="none" xmlns="http://www.w3.org/2000/svg">
<path d="M12.9334 12.9418C12.9944 13.0028 13.0428 13.0752 13.0757 13.1549C13.1087 13.2345 13.1257 13.3199 13.1257 13.4061C13.1257 13.4924 13.1087 13.5777 13.0757 13.6574C13.0428 13.7371 12.9944 13.8095 12.9334 13.8704C12.8724 13.9314 12.8001 13.9798 12.7204 14.0128C12.6407 14.0458 12.5553 14.0627 12.4691 14.0627C12.3829 14.0627 12.2975 14.0458 12.2178 14.0128C12.1382 13.9798 12.0658 13.9314 12.0048 13.8704L6.56286 8.42765L1.12091 13.8704C0.997773 13.9936 0.83076 14.0627 0.656615 14.0627C0.48247 14.0627 0.315457 13.9936 0.192318 13.8704C0.0691788 13.7473 3.43282e-09 13.5803 0 13.4061C-3.43282e-09 13.232 0.0691788 13.065 0.192318 12.9418L5.63509 7.49988L0.192318 2.05792C0.0691788 1.93478 0 1.76777 0 1.59363C0 1.41948 0.0691788 1.25247 0.192318 1.12933C0.315457 1.00619 0.48247 0.937012 0.656615 0.937012C0.83076 0.937012 0.997773 1.00619 1.12091 1.12933L6.56286 6.5721L12.0048 1.12933C12.128 1.00619 12.295 0.937012 12.4691 0.937012C12.6433 0.937012 12.8103 1.00619 12.9334 1.12933C13.0566 1.25247 13.1257 1.41948 13.1257 1.59363C13.1257 1.76777 13.0566 1.93478 12.9334 2.05792L7.49064 7.49988L12.9334 12.9418Z" fill="#1A1A1A"/>
</svg>
